<svg xmlns="http://www.w3.org/2000/svg" width="205.623" height="501.256" viewBox="0 0 205.623 501.256">
  <g id="Gruppe_16" data-name="Gruppe 16" transform="translate(-1310.671 1064.34)">
    <path id="path104" d="M202.866-658.13c1.344-6.625-2.819-15.548,1-31.093.54-2.2,6.177-3.379,7.216-6.081,0,0-9.671.267-12.16,1.065-1.272,6.708-2.64,22.064,3.94,36.109" transform="translate(1229 -113)" fill="#004e4c"/>
    <path id="path106" d="M198.912-704.084c3.443.141,9.064.281,12.045-1.516-5.557-2.7-5.056-11.993,2.936-12.668,6.251.336,10.2,7.267,4.787,11.824,5.409-.957,11.261-5.219,13.915-8.972,3.711-5.236,3.793-6.571,9.995-8.319l-.784-.76c-16.249-2.861-46.379-1.3-42.893,20.411" transform="translate(1229 -113)" fill="#004e4c"/>
    <path id="path108" d="M244.138-737.353l1.855.7c-9.731-11.187-44.743-27.6-48.243-1.769,14.371-7.264,29.94-7.572,46.388,1.071" transform="translate(1229 -113)" fill="#004e4c"/>
    <path id="path110" d="M226.041-770.891c8.957-.5,14.464-3.673,17.848-8.74,5.407-1.243,15.264-8.253,17.691-12.627,2.06-3.695,6.143-11.115,5.907-15.2-5.557,3.379-13.041,3.041-14.525-1.307-.741-2.183-.24-4.436.456-7.477,1.389-10.475,5.392-15.373,6.035-16.5,3.381-5.935,9.519-1.62,9.883-7.808a18.167,18.167,0,0,0-3.409-4.581c-12.1-10.86-20.419,19.567-22.064,26.867-3.175,14.087-1.509,44.637-20.151,46.624-1.119.061.04.839-1.191.816a20.852,20.852,0,0,0,3.521-.059" transform="translate(1229 -113)" fill="#004e4c"/>
    <path id="path112" d="M120.932-913.01c9.681,1.009,18.184,12.86,16.9,22.017-1.057,7.475-9.094,11.685-17.753,7.009-8.835-3.575-15.2-31.393.858-29.027Zm77.977,34.647c18.844,14.819,24.091,35.212,10.259,38.875-9.516,2.519-15.285-10.995-22.055-14.583-13.107-6.947-13.393,9.907-19.231,14.956-14.441,12.489-36.987-17.437-35.578-21.805C143.8-896.6,185.84-888.636,198.909-878.363Zm-31.347-52.22c8.909,8.3,9.327,24.9,1.311,31.76-6.551,5.6-14.608,4.288-19.8-6.373-5.833-9.3,1.021-39.7,18.489-25.387Zm22.771,12.119c5.313-6.656,13.665-12.517,20.045-10.369,8.1,2.725,5.692,20.664,3.117,25.812a17.249,17.249,0,0,1-18.6,9.752C191.789-893.934,181.582-904.051,190.333-918.464Zm28.931,29.011c5.812-8.953,29.323-18.576,23.213,5.115-3.983,9.317-13.3,15.191-20.376,11.524-4.947-2.557-8.647-7.685-2.837-16.639ZM117.038-753.815c-4.513-1.42-22.086,2.533-27.6,6.392,2.729-7.391,11.79-15.545,18.335-20.084-18.837-25.8-20.08-70.42-11-82.113,10.809-13.936,18.376-5.729,27.729,3.173,16.725,15.925,25.5,27.475,34.711,33.125,1.768-1.568,7.121-6.7,8.4-8.588a24.757,24.757,0,0,0,4.115-11.692c2.853,3.165,3.2,9.923,1.812,13.977,6.112-3.647,9.359-18.679,9.556-25.676a96.235,96.235,0,0,1,7.636,13.38c2,4.4,5.353,8.081,7.505,12.3a36.567,36.567,0,0,0-1.127-15.653c10.405,5.181,11.775,21.66,12.1,21.949,9.211-5.651,17.989-17.2,34.712-33.125,9.352-8.9,16.92-17.109,27.728-3.173,9.077,11.693,7.835,56.313-11,82.113,6.545,4.539,15.607,12.693,18.335,20.084-5.52-3.859-24.4-8.787-27.6-6.392,13.735,4.64,19.605,8.377,27.343,20.769a73.339,73.339,0,0,1,8.577,21.348V-858.447c0-13.62-11.377-25.668-23.428-22.655,4.017-8.033,1.007-38.151-28.109-35.139,6.024-21.081-29.112-43.169-51.2-24.093-22.088-22.088-47.367-6.469-54.211,8.031-22.087-14.056-48.674,2.008-48.674,20.019v198.391a71.671,71.671,0,0,1,8.021-19.153c7.74-12.392,13.612-16.129,27.346-20.769" transform="translate(1229 -113)" fill="#004e4c"/>
    <path id="path114" d="M156.977-705.6c2.984,1.8,8.6,1.657,12.047,1.516,3.487-21.712-26.643-23.272-42.894-20.411l-.786.76c6.207,1.748,6.285,3.083,10,8.319,2.656,3.753,8.5,8.015,13.916,8.972-5.412-4.557-1.465-11.488,4.787-11.824,7.992.675,8.495,9.964,2.935,12.668" transform="translate(1229 -113)" fill="#004e4c"/>
    <path id="path116" d="M164.038-689.224c3.824,15.545.163,24.468,1.508,31.093,6.579-14.045,5.209-29.4,3.937-36.109-2.487-.8-12.161-1.065-12.161-1.065,1.041,2.7,6.177,3.884,6.716,6.081" transform="translate(1229 -113)" fill="#004e4c"/>
    <path id="path118" d="M142.369-770.891a20.87,20.87,0,0,0,3.523.059c-1.231.023-.072-.755-1.193-.816-18.639-1.987-16.973-32.537-20.149-46.624-1.643-7.3-8.258-36.717-22.06-26.867a11.91,11.91,0,0,0-3.411,4.581c.364,6.188,6.5,1.873,9.883,7.808.641,1.131,4.644,6.029,6.035,16.5.693,3.041,1.2,5.295.457,7.477-1.485,4.348-8.97,4.685-14.528,1.307-.235,4.089,3.846,11.509,5.9,15.2,2.429,4.373,12.287,11.384,17.693,12.627,3.385,5.067,8.89,8.24,17.846,8.74" transform="translate(1229 -113)" fill="#004e4c"/>
    <path id="path120" d="M231.407-523.2C214-497.769,189.241-467.315,170.5-451.92c-.767.629-1.525,1.239-2.277,1.836h119.07v-105.2c-5.469,4.667-12.919,9.693-20.415,12-20.355,6.263-23.828,3.061-35.472,20.079" transform="translate(1229 -113)" fill="#004e4c"/>
    <path id="path122" d="M163.789-616.76c-3.9,5.037-2.013,14.576,5.763,12.432-9.973-11.457,17.665-10.4,3.024,3.4,4.279,2.259,7.96,3.321,11.664,3.228h0c.025,0,.052,0,.076,0s.051,0,.079,0h0c3.7.093,7.383-.969,11.664-3.228-14.641-13.8,13-14.86,3.024-3.4,7.775,2.144,9.661-7.395,5.763-12.432-3.967-5.125-9.916-5.447-16.133-5.493a15.814,15.814,0,0,0-3.876-.045c-.149-.017-.3-.024-.441-.035v-.013l-.079.005-.076-.005v.013c-.147.011-.295.017-.444.035a15.794,15.794,0,0,0-3.873.045c-6.22.047-12.167.368-16.133,5.493" transform="translate(1229 -113)" fill="#004e4c"/>
    <path id="path124" d="M121.828-665.83s23.576,56.794-13.067,78.88c4.34,6.977,6.341,8.631,10.039,16.063,10.578,21.26,13.31,45.035,4.183,70.108,11.348-9.052,12.957-10.232,24.094-17.4,40.365-25.995,52.744-28.436,61.313-34.269,18.965-12.907,22.956-18.527,33.523-37.628,17.785-32.156,33.523-39.681,39-43.1a21.885,21.885,0,0,1,6.384-1.588v-10.016a25.343,25.343,0,0,0-16.373,2.329c-11.2,5.679-21.756,16.505-34.817,37.177-4.424-20.84-1.135-44.736,15.429-66.592,2.3,3.364,6.905,7.769,15.9,10.219,2.248.612,11.469,1.013,19.857,5.669V-707.45c-8.345-9.079-22.28-9.919-22.28-9.919,8.44,10.46,15.753,21.012,11.068,41.2-9.055-4.62-25.279-16.068-37.816,2.981-7.753,11.78-10.417,19.257-12.639,32.548-2.241,13.415-3.907,31.028-7.961,39.217-3.777,7.627-12.475,10.067-12.36,9.913-6.8,2.96-15.032,3.763-21.46,1.037-11.329,4.832-28.308-1.332-33.1-10.951-4.079-8.179-5.72-25.8-7.964-39.217-2.219-13.291-4.883-20.768-12.632-32.548-12.543-19.049-28.4-6.928-37.451-2.309-6.026-24.9,2.26-31.412,10.7-41.872,0,0-13.34.8-21.726,9.331v63.186a41.121,41.121,0,0,1,10.523-5.515c15.026-5.711,25.316-7.7,29.633-15.464" transform="translate(1229 -113)" fill="#004e4c"/>
    <path id="path126" d="M81.671-489.251v39.167h21.418c-3.235-4.5-6.337-9.493-9.555-14.555-1.76-2.764-6.428-12.292-11.863-24.612" transform="translate(1229 -113)" fill="#004e4c"/>
    <path id="path128" d="M122.419-736.654l1.852-.7c16.45-8.643,32.021-8.335,46.387-1.071-3.5-25.827-38.508-9.417-48.239,1.769" transform="translate(1229 -113)" fill="#004e4c"/>
  </g>
</svg>
